HIERARCHY
ROOT Hips
{
	OFFSET 0.000000 0.000000 0.000000
	CHANNELS 6 Xposition Yposition Zposition Xrotation Yrotation Zrotation
	JOINT LeftUpLeg_virtual
	{
		OFFSET 0.000000 0.000000 0.000000
		CHANNELS 3 Xrotation Yrotation Zrotation
		JOINT LeftUpLeg
		{
			OFFSET 11.394100 -6.187798 -0.413800
			CHANNELS 3 Xrotation Yrotation Zrotation
			JOINT LeftLeg
			{
				OFFSET 0.430247 -32.302673 3.732800
				CHANNELS 3 Xrotation Yrotation Zrotation
				JOINT LeftFoot
				{
					OFFSET -0.430247 -48.264931 -6.423300
					CHANNELS 3 Xrotation Yrotation Zrotation
					JOINT LeftToeBase
					{
						OFFSET 4.230900 -16.068199 23.438400
						CHANNELS 3 Xrotation Yrotation Zrotation
						JOINT LeftToe_End
						{
							OFFSET 4.510700 0.695400 19.974600
							CHANNELS 3 Xrotation Yrotation Zrotation
							End Site
							{
								OFFSET 0 0 0
							}
						}
					}
				}
			}
		}
	}
	JOINT RightUpLeg_virtual
	{
		OFFSET 0.000000 0.000000 0.000000
		CHANNELS 3 Xrotation Yrotation Zrotation
		JOINT RightUpLeg
		{
			OFFSET -11.333700 -6.187798 -0.413800
			CHANNELS 3 Xrotation Yrotation Zrotation
			JOINT RightLeg
			{
				OFFSET -0.430392 -32.302628 3.733000
				CHANNELS 3 Xrotation Yrotation Zrotation
				JOINT RightFoot
				{
					OFFSET 0.430392 -48.264973 -6.423500
					CHANNELS 3 Xrotation Yrotation Zrotation
					JOINT RightToeBase
					{
						OFFSET -4.230900 -16.068199 23.438400
						CHANNELS 3 Xrotation Yrotation Zrotation
						JOINT RightToe_End
						{
							OFFSET -4.510700 0.695400 19.974600
							CHANNELS 3 Xrotation Yrotation Zrotation
							End Site
							{
								OFFSET 0 0 0
							}
						}
					}
				}
			}
		}
	}
	JOINT Spine_virtual
	{
		OFFSET 0.000000 0.000000 0.000000
		CHANNELS 3 Xrotation Yrotation Zrotation
		JOINT Spine
		{
			OFFSET -0.002400 12.777504 0.315300
			CHANNELS 3 Xrotation Yrotation Zrotation
			JOINT Spine1
			{
				OFFSET -0.002067 5.816869 0.032633
				CHANNELS 3 Xrotation Yrotation Zrotation
				JOINT Spine1_split
				{
					OFFSET -0.002067 5.816869 0.032633
					CHANNELS 3 Xrotation Yrotation Zrotation
					JOINT Spine2
					{
						OFFSET -0.002067 5.816869 0.032633
						CHANNELS 3 Xrotation Yrotation Zrotation
						JOINT Neck_virtual
						{
							OFFSET 0.000000 0.000000 0.000000
							CHANNELS 3 Xrotation Yrotation Zrotation
							JOINT Neck
							{
								OFFSET -0.003700 21.199493 -0.826900
								CHANNELS 3 Xrotation Yrotation Zrotation
								JOINT Head
								{
									OFFSET 0.000000 20.442200 4.834800
									CHANNELS 3 Xrotation Yrotation Zrotation
									JOINT HeadTop_End
									{
										OFFSET 0.000000 34.668396 4.968400
										CHANNELS 3 Xrotation Yrotation Zrotation
										End Site
										{
											OFFSET 0 0 0
										}
									}
								}
							}
						}
						JOINT LeftShoulder_virtual
						{
							OFFSET 0.000000 0.000000 0.000000
							CHANNELS 3 Xrotation Yrotation Zrotation
							JOINT LeftShoulder
							{
								OFFSET 3.288150 8.794197 -1.372250
								CHANNELS 3 Xrotation Yrotation Zrotation
								JOINT LeftShoulder_split
								{
									OFFSET 3.288150 8.794197 -1.372250
									CHANNELS 3 Xrotation Yrotation Zrotation
									JOINT LeftArm
									{
										OFFSET 11.953299 -2.279007 -0.146200
										CHANNELS 3 Xrotation Yrotation Zrotation
										JOINT LeftForeArm
										{
											OFFSET 18.448900 0.000000 0.000000
											CHANNELS 3 Xrotation Yrotation Zrotation
											JOINT LeftHand
											{
												OFFSET 29.527798 0.000000 0.000000
												CHANNELS 3 Xrotation Yrotation Zrotation
												End Site
												{
													OFFSET 0 0 0
												}
											}
										}
									}
								}
							}
						}
						JOINT RightShoulder_virtual
						{
							OFFSET 0.000000 0.000000 0.000000
							CHANNELS 3 Xrotation Yrotation Zrotation
							JOINT RightShoulder
							{
								OFFSET -3.249400 8.794197 -1.372250
								CHANNELS 3 Xrotation Yrotation Zrotation
								JOINT RightShoulder_split
								{
									OFFSET -3.249400 8.794197 -1.372250
									CHANNELS 3 Xrotation Yrotation Zrotation
									JOINT RightArm
									{
										OFFSET -11.953299 -2.279007 -0.146200
										CHANNELS 3 Xrotation Yrotation Zrotation
										JOINT RightForeArm
										{
											OFFSET -18.448900 0.000000 0.000000
											CHANNELS 3 Xrotation Yrotation Zrotation
											JOINT RightHand
											{
												OFFSET -29.527802 0.000000 0.000000
												CHANNELS 3 Xrotation Yrotation Zrotation
												End Site
												{
													OFFSET 0 0 0
												}
											}
										}
									}
								}
							}
						}
					}
				}
			}
		}
	}
}
MOTION
Frames: 7
Frame Time: 0.03333333
-0.192478 84.529579 -3.779190 0.000000 0.000000 0.000000 -16.044260 2.901290 0.530719 -23.578402 -2.680508 14.928230 56.017021 1.087362 1.828405 -18.626337 -0.986966 -11.676118 -1.366568 -0.440379 -0.122562 0.000000 0.000000 0.000000 -16.601053 1.434054 0.522529 -18.764645 -2.635631 -15.164879 56.078558 0.332015 -0.863989 -24.694786 -5.596117 12.540274 0.690170 0.648501 -0.375994 0.000000 0.000000 0.000000 -15.568347 0.664644 0.278446 19.018131 0.044605 2.573417 5.768439 0.027580 -0.240448 2.089340 5.316651 -0.358460 0.000000 0.000000 0.000000 6.026082 -0.173371 0.469585 -11.327264 -1.319645 2.536089 -17.279325 1.588887 -0.597687 0.000000 0.000000 0.000000 7.786925 -0.221374 0.739791 3.513745 -7.683117 -4.525322 -4.854132 -0.926291 -4.055899 -10.470269 -17.692131 -58.747256 70.274389 -61.693431 70.640610 0.000000 0.000000 0.000000 7.480353 -0.092273 -0.085788 9.986312 -5.706139 15.978157 3.661998 2.576219 -1.022371 -27.554812 11.972045 60.477924 88.822321 61.317545 -83.631944 0.000000 0.000000 0.000000 
-0.277864 84.548592 -3.595638 0.000000 0.000000 0.000000 -16.110125 2.995626 0.424989 -23.609823 -3.028894 14.968069 55.971051 1.067209 1.817389 -18.674306 -0.992962 -11.677166 -1.271681 -0.414012 -0.118424 0.000000 0.000000 0.000000 -16.677131 1.867332 0.489980 -18.402391 -2.588038 -15.064542 56.200200 0.342420 -0.867134 -24.943907 -5.557955 12.352394 0.979259 0.698237 -0.426239 0.000000 0.000000 0.000000 -15.711255 1.103285 0.185776 18.939397 -0.027101 2.538187 5.954908 0.045683 -0.166348 1.950743 5.479777 -0.126632 0.000000 0.000000 0.000000 6.100759 -0.201917 0.517609 -11.613263 -1.067952 2.104532 -17.454613 1.836923 -0.649661 0.000000 0.000000 0.000000 7.837557 -0.165746 0.817319 3.613853 -7.660431 -4.124801 -4.514388 -1.030279 -4.256924 -12.468514 -18.026534 -60.374460 67.878461 -61.279269 68.379722 0.000000 0.000000 0.000000 7.596564 -0.097058 -0.047993 9.812226 -5.967041 16.053806 3.774011 1.868431 0.637570 -27.103425 10.667654 60.823231 86.506477 62.410485 -81.689930 0.000000 0.000000 0.000000 
-0.394830 84.611969 -3.432411 0.000000 0.000000 0.000000 -16.363929 3.173933 0.367621 -23.587099 -3.440435 14.849200 56.035869 1.031789 1.853006 -18.840281 -0.948642 -11.809411 -1.112738 -0.340598 -0.195486 0.000000 0.000000 0.000000 -16.882220 2.311707 0.448845 -17.774732 -2.735237 -15.007746 56.200910 0.463372 -0.911993 -25.107270 -5.583299 12.381474 0.874045 0.696030 -0.474252 0.000000 0.000000 0.000000 -16.064330 1.703111 0.089691 19.057088 -0.196125 2.357682 6.319186 0.131446 -0.034613 1.759401 4.824568 0.051102 0.000000 0.000000 0.000000 6.378120 -0.120953 0.515610 -11.484023 -0.787687 1.251118 -17.989953 2.003441 -0.656246 0.000000 0.000000 0.000000 7.983703 -0.049246 0.899989 3.452159 -8.376290 -3.782374 -4.349199 -1.850789 -3.480376 -12.763300 -17.218704 -60.457686 61.504371 -61.972267 62.321583 0.000000 0.000000 0.000000 7.928231 0.008235 0.069915 9.392980 -6.053462 16.195367 2.367535 1.393207 1.101014 -25.071466 11.411496 59.735059 82.592136 65.741609 -78.784019 0.000000 0.000000 0.000000 
-0.497860 84.732857 -3.329895 0.000000 0.000000 0.000000 -16.775131 3.393605 0.387295 -23.421813 -3.779377 14.539806 56.151528 1.027150 1.944626 -19.035715 -0.841564 -11.967403 -0.976633 -0.239128 -0.334833 0.000000 0.000000 0.000000 -17.170870 2.649894 0.437368 -16.932039 -3.066344 -15.026421 56.036136 0.619805 -0.956806 -25.279160 -5.699341 12.437881 0.562160 0.638407 -0.458833 0.000000 0.000000 0.000000 -16.565347 2.207102 0.056438 19.308789 -0.451548 2.081856 6.775998 0.244369 0.083936 1.341913 3.620888 0.664110 0.000000 0.000000 0.000000 6.801338 -0.013833 0.465403 -10.761427 -0.486724 0.147977 -18.614876 2.178420 -0.738512 0.000000 0.000000 0.000000 8.185960 0.055697 0.949375 3.095745 -9.634098 -3.318908 -4.315281 -3.282794 -2.318699 -11.124247 -15.751036 -58.405426 53.236021 -63.932695 54.381642 0.000000 0.000000 0.000000 8.362945 0.128089 0.206364 8.846820 -5.941012 16.089952 0.039613 1.080634 0.788393 -20.844481 13.676227 56.500920 79.220844 71.056924 -76.603836 0.000000 0.000000 0.000000 
-0.559821 84.967346 -3.236378 0.000000 0.000000 0.000000 -17.316693 3.561622 0.518936 -23.033889 -3.960622 14.061404 56.111145 1.093617 2.062987 -19.148265 -0.687299 -12.029907 -0.945318 -0.136335 -0.481973 0.000000 0.000000 0.000000 -17.522198 2.900667 0.514700 -15.986819 -3.548367 -15.110870 55.611650 0.678576 -0.952158 -25.406239 -5.919888 12.290557 0.418171 0.551795 -0.352537 0.000000 0.000000 0.000000 -17.195739 2.517089 0.122694 19.562644 -0.804600 1.764410 7.211290 0.299885 0.148462 0.555272 2.469268 1.193242 0.000000 0.000000 0.000000 7.343448 0.001525 0.370821 -9.119046 -0.133863 -0.975270 -19.062397 2.364235 -0.921113 0.000000 0.000000 0.000000 8.417669 0.054449 0.962758 2.654639 -11.113464 -2.549238 -4.470145 -4.125384 -1.767929 -7.951311 -14.285204 -53.986515 43.976716 -67.247864 45.509988 0.000000 0.000000 0.000000 8.830465 0.127258 0.319641 8.243466 -5.707905 15.494375 -1.708923 1.093055 0.064762 -14.218286 16.126444 50.850885 76.039082 77.637039 -74.292951 0.000000 0.000000 0.000000 
-0.573671 85.394058 -3.234875 0.000000 0.000000 0.000000 -17.850044 3.644217 0.762392 -22.406485 -4.005568 13.479875 55.771459 1.205514 2.201768 -19.035396 -0.549594 -11.982171 -1.033279 -0.057766 -0.596684 0.000000 0.000000 0.000000 -17.841205 3.073345 0.705302 -15.092350 -4.087814 -15.233123 54.877264 0.622010 -0.882706 -25.375398 -6.191144 11.961317 0.532653 0.478068 -0.172771 0.000000 0.000000 0.000000 -17.847356 2.594192 0.312821 19.680393 -1.232733 1.460268 7.539626 0.201869 0.150691 -0.341557 1.712475 1.113341 0.000000 0.000000 0.000000 7.957422 -0.121827 0.268383 -6.279457 0.209251 -1.877215 -19.121968 2.511583 -1.249831 0.000000 0.000000 0.000000 8.630841 -0.111486 0.950421 2.283449 -12.544138 -1.385777 -4.279006 -4.338197 -1.889152 -3.880446 -12.957786 -47.151009 33.274475 -71.690458 35.220014 0.000000 0.000000 0.000000 9.212180 -0.053450 0.399912 7.605184 -5.252836 14.183145 -2.794810 1.325224 -0.409106 -6.179702 16.874626 43.101659 63.332984 84.220126 -61.888563 0.000000 0.000000 0.000000 
-0.556690 85.986664 -3.322010 0.000000 0.000000 0.000000 -18.319952 3.632904 1.067830 -21.633060 -3.952540 12.934064 55.061662 1.300833 2.347151 -18.587175 -0.466725 -11.889986 -1.175393 -0.019123 -0.652666 0.000000 0.000000 0.000000 -18.081949 3.234248 1.001984 -14.309017 -4.582216 -15.405712 53.813387 0.535800 -0.796123 -25.081682 -6.418264 11.699977 0.646631 0.458948 -0.026870 0.000000 0.000000 0.000000 -18.463294 2.602257 0.596398 19.607441 -1.722492 1.168471 7.818508 -0.063961 0.090786 -0.814817 1.704011 0.830682 0.000000 0.000000 0.000000 8.548439 -0.415856 0.213584 -2.133728 0.479693 -2.414757 -18.751195 2.627162 -1.631787 0.000000 0.000000 0.000000 8.855573 -0.422956 0.894436 2.153035 -13.759484 0.244262 -3.782675 -4.735900 -2.349095 1.060939 -11.298075 -38.202027 19.499828 -76.079442 21.678047 0.000000 0.000000 0.000000 9.387439 -0.404054 0.483480 6.931957 -4.435763 12.306075 -3.355546 1.700849 -0.449609 0.643822 15.106025 34.739452 -21.372301 86.518730 22.914106 0.000000 0.000000 0.000000 
